<?xml version="1.0" encoding="iso-8859-1"?>
<!-- Uploaded to: SVG Repo, www.svgrepo.com, Generator: SVG Repo Mixer Tools -->
<svg fill="#000000" height="800px" width="800px" version="1.1" id="Layer_1" xmlns="http://www.w3.org/2000/svg" xmlns:xlink="http://www.w3.org/1999/xlink" 
	 viewBox="0 0 511.059 511.059" xml:space="preserve">
<g>
	<g>
		<path d="M404.623,221.276c-4.369-40.277-16.375-82.577-47.343-128.7c3.371-6.622,3.132-14.515-1.084-21.128
			c-5.385-8.457-15.394-12.015-25.472-8.653c-2.227,0.725-3.806-0.418-4.386-0.93c-0.572-0.538-1.852-2.014-1.314-4.233l0.222-0.964
			c1.664-7.39-0.725-14.925-6.409-20.139c-5.854-5.402-14.174-7.253-21.7-4.89l-78.976,43.759L119.729,5.271
			c-9.182-5.367-19.874-6.673-30.08-3.746C79.435,4.478,71.106,11.296,66.2,20.717c-4.907,9.438-5.717,20.173-2.278,30.225
			c3.447,10.061,10.658,18.048,20.233,22.443l108.015,51.183l9.173,88.695l0.35,1.69c1.724,5.478,5.564,9.95,10.496,12.672
			c-22.75,19.072-36.019,47.087-36.019,77.193v112.375c0,51.763,42.112,93.867,93.867,93.867h85.333
			c51.763,0,93.867-42.103,93.867-93.867V304.817C449.235,271.127,432.553,240.134,404.623,221.276z M206.146,88.949l-9.754,18.731
			L91.373,57.931c-5.367-2.475-9.387-6.921-11.298-12.518c-1.92-5.589-1.468-11.563,1.263-16.811
			c2.731-5.248,7.364-9.037,13.047-10.684c2.048-0.58,4.122-0.862,6.153-0.862c3.618,0,7.083,0.887,9.933,2.534l96.119,68.514
			L206.146,88.949z M236.849,114.617c1.459-2.842,4.395-4.625,7.586-4.625h76.8c4.71,0,8.533,3.823,8.533,8.533
			c0,4.719-3.823,8.533-8.533,8.533h-60.211l33.024,46.242c2.739,3.84,1.852,9.173-1.988,11.904
			c-1.493,1.075-3.234,1.587-4.949,1.587c-2.662,0-5.282-1.237-6.955-3.575l-42.667-59.733
			C235.637,120.889,235.39,117.468,236.849,114.617z M389.502,322.191v7.919c0,33.903-27.58,61.483-61.483,61.483h-30.626
			c-33.903,0-61.491-27.58-61.491-61.483v-7.919v-59.913c0.299-12.689,0.939-25.54,2.33-38.571l0.213-0.213l0.495-0.555
			c1.553-1.758,3.482-1.553,4.258-1.382c0.76,0.162,2.611,0.794,3.448,3.593c0.341,1.178,0.785,2.295,1.297,3.362
			c0.35,0.734,0.777,1.391,1.195,2.065c0.196,0.307,0.35,0.64,0.555,0.93c0.572,0.836,1.229,1.596,1.911,2.33
			c0.077,0.094,0.145,0.196,0.23,0.282c0.751,0.777,1.562,1.476,2.415,2.125c0.034,0.034,0.068,0.068,0.102,0.094
			c0.836,0.631,1.732,1.169,2.654,1.673c0.077,0.034,0.137,0.085,0.213,0.119c0.853,0.444,1.741,0.802,2.654,1.126
			c0.179,0.06,0.358,0.145,0.538,0.205c0.785,0.256,1.604,0.427,2.424,0.589c0.367,0.077,0.717,0.171,1.075,0.222
			c0.666,0.094,1.34,0.128,2.022,0.162c0.418,0.017,0.819,0.094,1.237,0.094c0.333,0,0.666-0.009,0.998-0.026
			c3.763-0.162,7.245-1.229,10.249-3.055c5.001-3.046,8.653-8.175,9.984-14.677c0.469-2.295,2.253-3.089,2.995-3.32
			c0.734-0.239,2.671-0.614,4.779,1.408c7.27,6.895,17.852,7.945,26.317,2.534c8.465-5.376,12.023-15.394,8.661-25.472
			c-0.742-2.227,0.41-3.806,0.939-4.386c0.529-0.572,1.988-1.852,4.847-1.169c2.432,0.58,4.864,0.742,7.219,0.521
			c7.049-0.674,13.355-4.83,16.819-11.494l0.009-0.008c0.282-0.546,0.469-1.118,0.7-1.673c0.247-0.572,0.538-1.143,0.725-1.724
			c0.316-0.956,0.512-1.929,0.683-2.901c0.034-0.196,0.111-0.384,0.137-0.58c1.041-7.023-1.527-14.217-7.484-19.499
			c-1.749-1.562-1.544-3.499-1.374-4.258c0.162-0.768,0.802-2.611,3.601-3.447c1.417-0.418,2.722-0.998,3.977-1.655
			c0.367-0.188,0.7-0.41,1.058-0.623c0.87-0.521,1.698-1.092,2.475-1.724c0.188-0.145,0.418-0.256,0.597-0.41
			c16.879,37.316,22.05,72.397,23.424,106.342V322.191z"/>
	</g>
</g>
</svg>