<?xml version="1.0" encoding="utf-8"?>
<!-- Svg Vector Icons : http://www.onlinewebfonts.com/icon -->
<!DOCTYPE svg PUBLIC "-//W3C//DTD SVG 1.1//EN" "http://www.w3.org/Graphics/SVG/1.1/DTD/svg11.dtd">
<svg version="1.1" xmlns="http://www.w3.org/2000/svg" xmlns:xlink="http://www.w3.org/1999/xlink" x="0px" y="0px" viewBox="0 0 1000 1000" enable-background="new 0 0 1000 1000" xml:space="preserve">
<metadata> Svg Vector Icons : http://www.onlinewebfonts.com/icon </metadata>
<g><g><path d="M936,909.1l-27.2-152.6c-7.3-40.9-44.7-79.5-85.2-88l-140.1-29.6l-28.9-59.2c-1.4-2.9-4-5.1-6.8-6.7c25.4-32.6,45.7-71.1,60.3-109.9c25-9,50.2-31.4,57.5-60.4c9.7-38.6-0.5-73-24.5-88v-27.3C763,221.7,774.3,114,675.2,56.1C630.7,30.2,593.9,28.5,566,37.6c-4.3-11.3,8.6-27.6,8.6-27.6c-22.9-0.8-34.9,11.4-39.9,18.2c-30.5-14.1-70.4-20-121.6-9.3c-164,34.4-185,249.2-154.9,296.3c-23.4,15.1-33.4,49.2-23.8,87.4c7.3,29.2,32.7,51.6,57.8,60.7c14.4,38.8,34.5,77.4,59.8,109.9c-2.7,1.6-5.2,3.6-6.6,6.5L316.6,639l-140.2,29.6c-40.5,8.7-78,47.2-85.2,88L64,909.1c-3.8,21.2,1.2,41.5,14.2,56.9c12.9,15.5,32,24,53.6,24h736.4c21.6,0,40.7-8.5,53.6-24C934.8,950.6,939.8,930.4,936,909.1z M897.2,945.4c-6.7,8.1-17,12.5-28.9,12.5H725.5v-82.8c0-8.8-7.2-16.1-16.1-16.1c-8.8,0-16.1,7.3-16.1,16.1v82.8H306.7v-82.8c0-8.8-7.2-16.1-16.1-16.1c-8.9,0-16.1,7.3-16.1,16.1v82.8H131.8c-12,0-22.2-4.4-29-12.5c-6.7-8-9.3-19-7.2-30.7l27.2-152.6c4.9-27.8,32.5-56.4,60.2-62.3l130.6-27.5c0.7,0.7,1.4,1.4,2.3,2L457,755.9c2.5,1.4,5.3,2.2,8,2.2c1.6,0,3.1-0.3,4.7-0.7c4.2-1.3,7.8-4.4,9.7-8.4l20.6-42l20.6,42c2,4,5.5,7.1,9.7,8.4c1.6,0.4,3.1,0.7,4.7,0.7c2.8,0,5.6-0.8,8-2.2l141.1-81.7c0.9-0.6,1.5-1.3,2.3-2L817,699.8c27.6,5.9,55.3,34.3,60.3,62.3l27.2,152.6C906.5,926.5,903.9,937.3,897.2,945.4z M356.5,630.5l10.3-21.1l24,13.9l20.8,12.1l20.8,12l47.6,27.5l-21.9,44.8l-98.4-56.9l-14.8-8.7l2.6-5.3L356.5,630.5z M643.6,630.5l8.9,18.2l2.6,5.3l-14.8,8.7l-98.4,56.9L520,674.8l47.6-27.5l20.8-12l20.7-12.1l24-13.9L643.6,630.5z M318.4,432.5c-13.3,2.8-44.1-13.9-50.2-38.2c-6.2-24.8-0.3-48,13.2-51.8c4-1.1,8.2-0.2,12.3,2v-37.2c0.1-0.1,0.1-0.1,0.2-0.3c-0.1-0.5-0.2-1.2-0.2-1.7v-12.8c3.3-31.5,33.1-91.1,196.8-37.5c56.4,18.5,91.2-10.8,108.8-49.6c55.6,6.2,92.8,69.3,107,108.3v30.8c2-1.1,4.1-1.9,6.2-2.3c-0.1,0.3-0.1,0.8-0.2,1c0.5,0.5,1.3,0.1,2.4-0.9c1.3-0.1,2.6-0.2,3.9,0.1c13.5,3.8,19.4,27,13.2,51.8c-6.1,24.1-36.6,40.8-49.8,38.3c-21.1,63.9-66.8,149.1-133.1,178.7c-15.3,6.8-31.5,10.7-48.9,10.7c-17.6,0-34.1-3.8-49.4-10.6C384.3,582.1,339.4,498.1,318.4,432.5z"/></g><g></g><g></g><g></g><g></g><g></g><g></g><g></g><g></g><g></g><g></g><g></g><g></g><g></g><g></g><g></g></g>
</svg>