<?xml version="1.0" encoding="utf-8"?>
<!-- Svg Vector Icons : http://www.onlinewebfonts.com/icon -->
<!DOCTYPE svg PUBLIC "-//W3C//DTD SVG 1.1//EN" "http://www.w3.org/Graphics/SVG/1.1/DTD/svg11.dtd">
<svg version="1.1" xmlns="http://www.w3.org/2000/svg" xmlns:xlink="http://www.w3.org/1999/xlink" x="0px" y="0px" viewBox="0 0 1000 1000" enable-background="new 0 0 1000 1000" xml:space="preserve">
<metadata> Svg Vector Icons : http://www.onlinewebfonts.com/icon </metadata>
<g><g><path d="M922.3,911.1l-26.2-147.7c-7.2-39.7-43.5-77.3-82.9-85.6l-21.1-4.5V346.7c0-244-129.1-336.7-288.3-336.7c-159.2,0-288.3,92.8-288.3,336.7v325l-28.8,6.1c-39.4,8.3-75.8,45.9-82.9,85.5L77.7,911c-3.7,20.7,1.2,40.4,13.9,55.6c12.7,15.1,31.2,23.4,52.2,23.4h712.4c21.1,0,39.5-8.3,52.2-23.4C921,951.5,926,931.8,922.3,911.1z M883.8,946c-6.3,7.7-16.2,11.9-27.6,11.9H718.7v-79.6c0-8.9-7.2-16.1-16.1-16.1s-16.1,7.2-16.1,16.1v79.6H313.5v-79.6c0-8.9-7.2-16.1-16.1-16.1c-8.9,0-16.1,7.2-16.1,16.1v79.6H143.8c-11.4,0-21.2-4.2-27.6-11.9c-6.4-7.7-8.9-18-6.9-29.3L135.5,769c4.8-26.8,31.3-54.2,57.9-59.7l100.2-21.1l40.3-8.5l14.7,8.5l109.5,63.4c2.5,1.4,5.3,2.1,8,2.1c1.6,0,3.2-0.2,4.7-0.7c4.3-1.3,7.8-4.4,9.7-8.3L500,705l19.4,39.7c2,4,5.5,7,9.8,8.3c1.5,0.5,3.1,0.7,4.7,0.7c2.8,0,5.6-0.7,8-2.1l109.5-63.4l14.7-8.5l40.3,8.5l100.2,21.1c26.6,5.6,53,32.9,57.9,59.7l26.3,147.7C892.7,927.9,890.2,938.3,883.8,946z M301.6,363c3.7-1,7.4-0.2,11.2,1.9v-10.3h220.7l20.1-120.2v125h133.7v5.5c3.6-2.1,7.4-3,11.2-1.9c12.3,3.6,17.6,26,12,50.1c-5.5,23.4-33.2,39.5-45.2,37c-23.4,76.1-105,164-165.2,164c-61.9,0-141.2-85.9-164.8-164c-12,2.7-40-13.5-45.5-37C283.9,389.1,289.3,366.7,301.6,363z M649.3,652.2l-9.4,5.5l-20.7,12l-31.8,18.4l-46.6,26.9l-13.2-26.9l-7.5-15.4l29.9-17.3l21.1-12.2l20.7-12.1l36.8-21.3l15.8,32.4L649.3,652.2z M371.4,609.9l36.8,21.3l20.8,12.1l21.1,12.2l29.9,17.3l-7.5,15.4l-13.2,26.9l-46.5-26.9l-31.8-18.4l-20.8-12l-9.4-5.5l4.9-10L371.4,609.9z"/></g><g></g><g></g><g></g><g></g><g></g><g></g><g></g><g></g><g></g><g></g><g></g><g></g><g></g><g></g><g></g></g>
</svg>