<?xml version="1.0" encoding="utf-8"?>
<!-- Svg Vector Icons : http://www.onlinewebfonts.com/icon -->
<!DOCTYPE svg PUBLIC "-//W3C//DTD SVG 1.1//EN" "http://www.w3.org/Graphics/SVG/1.1/DTD/svg11.dtd">
<svg version="1.1" xmlns="http://www.w3.org/2000/svg" xmlns:xlink="http://www.w3.org/1999/xlink" x="0px" y="0px" viewBox="0 0 1000 1000" enable-background="new 0 0 1000 1000" xml:space="preserve">
<metadata> Svg Vector Icons : http://www.onlinewebfonts.com/icon </metadata>
<g><g transform="translate(0.000000,512.000000) scale(0.100000,-0.100000)"><path d="M4661.2,5000.6c-507.8-59.4-983.1-268.3-1314.6-576.8c-423.5-394.7-584.5-862.3-559.6-1615.4c7.7-178.2,21.1-385.2,30.7-459.9c11.5-72.8,24.9-166.7,30.7-205c9.6-65.1,5.7-72.8-32.6-72.8c-70.9,0-164.8-69-210.8-157.1c-38.3-70.9-44.1-109.2-42.1-283.6c1.9-162.9,11.5-229.9,51.7-356.4c55.6-164.8,161-344.9,260.6-436.9c32.6-32.6,59.4-65.2,59.4-74.7c0-30.6,277.9-573,364.1-712.9c224.2-360.3,530.8-701.3,781.8-870c452.3-304.7,1011.8-367.9,1515.8-174.4c500.1,193.6,946.6,684.1,1335.6,1464c95.8,191.6,189.7,356.4,233.8,402.4c176.3,191.6,276,459.9,279.8,749.3c1.9,159-5.8,207-40.2,281.7c-46,99.7-115,153.3-199.3,157.1c-55.6,1.9-57.5,5.7-47.9,69c69,419.7,84.3,1029,30.6,1312.6c-74.7,406.3-241.4,716.7-527,983C6182.7,4872.3,5427.7,5088.8,4661.2,5000.6z M4237.7,3438.9c609.4-548.1,1310.7-802.9,2376.2-862.3l230-13.4v-63.2c0-95.8-53.7-459.9-105.4-722.4c-26.8-128.4-47.9-241.4-47.9-252.9c0-9.6,26.8,40.2,57.5,111.1c101.6,239.5,201.2,333.4,293.2,272.1c191.6-124.6,118.8-603.6-132.2-871.9c-57.5-61.3-113.1-159-180.1-308.5c-239.5-534.6-448.4-873.8-697.5-1121c-141.8-141.8-205-189.7-337.3-252.9c-252.9-124.6-366-147.6-699.4-147.6c-335.3,1.9-454.2,26.8-689.9,149.5c-373.7,193.6-686,613.2-1034.8,1393.1c-59.4,130.3-118.8,231.9-172.5,289.4c-260.6,277.9-325.8,787.6-115,883.4c86.2,40.2,162.9-40.2,283.6-300.9c30.7-63.2,49.8-93.9,44.1-67.1c-105.4,527-145.6,820.2-145.6,1059.7c0,184,5.7,216.6,49.8,306.6c122.6,241.5,327.7,469.5,519.3,573c74.7,42.2,245.3,101.6,312.3,109.2C4051.8,3603.7,4138,3529,4237.7,3438.9z"/><path d="M3384.9-1449.5c-42.2-15.3-283.6-86.2-536.6-161c-687.9-201.2-1036.7-314.3-1266.6-410.1c-344.9-143.7-647.7-335.3-793.3-502.1c-78.6-88.1-274-492.5-314.3-647.7c-44.1-166.7-72.8-559.6-65.2-875.7c5.7-247.2,11.5-283.6,55.6-381.3c63.2-136.1,166.7-237.6,302.8-302.8l107.3-49.8h4129.6h4129.6l107.3,49.8c136.1,63.3,239.5,166.7,302.8,302.8c49.8,107.3,49.8,111.1,47.9,548c-1.9,596-40.2,770.4-258.7,1178.5c-88.2,162.9-136.1,218.5-285.5,333.4c-333.4,256.8-689.9,404.3-1648,684.1c-289.3,86.2-603.6,178.2-695.6,208.9l-170.6,53.7l11.5-46c21.1-78.6,15.3-536.5-7.7-663c-97.7-540.4-718.6-1439.1-1303.1-1883.7c-243.4-185.9-212.7-184-442.7-11.5c-440.7,331.5-864.2,854.6-1145.9,1414.2c-166.7,335.4-222.3,619-193.6,992.6c7.7,105.4,13.4,193.6,11.5,193.6C3463.5-1422.7,3427.1-1434.2,3384.9-1449.5z"/><path d="M4590.3-1503.2c-53.7-46-120.7-115-151.4-153.3l-51.7-69l67.1-103.5c74.7-111.1,174.4-218.5,289.4-310.4l72.8-59.4l-212.7-530.8L4391-3260.4l61.3-88.1c93.9-136.1,218.5-264.4,394.7-400.5l157.1-124.6l134.1,107.3c161,130.3,306.6,275.9,404.3,406.2l74.7,95.8l-212.7,530.8L5192-2200.7l151.4,147.5c82.4,80.5,180.1,187.8,214.6,239.5l61.3,90.1l-59.4,76.7c-32.6,42.2-99.7,109.2-147.6,153.3l-88.1,76.7h-318.1H4688L4590.3-1503.2z"/></g></g>
</svg>