<?xml version="1.0" encoding="utf-8"?>
<!-- Svg Vector Icons : http://www.onlinewebfonts.com/icon -->
<!DOCTYPE svg PUBLIC "-//W3C//DTD SVG 1.1//EN" "http://www.w3.org/Graphics/SVG/1.1/DTD/svg11.dtd">
<svg version="1.1" xmlns="http://www.w3.org/2000/svg" xmlns:xlink="http://www.w3.org/1999/xlink" x="0px" y="0px" viewBox="0 0 1000 1000" enable-background="new 0 0 1000 1000" xml:space="preserve">
<metadata> Svg Vector Icons : http://www.onlinewebfonts.com/icon </metadata>
<g><g><path d="M817.9,732.3V381.3C817.9,112.2,675.5,10,500,10c-175.5,0-317.8,102.2-317.8,371.3v350.9c-51.2,67.2-82,150.8-82,241.7V990h799.8v-16.1C899.9,883.1,869,799.4,817.9,732.3z M132.6,957.9c3.2-74.6,28.9-143.4,70.2-200.1c30.7-42.1,70.2-77.2,115.6-103.2c49.1,46.8,114.6,73.5,182.8,73.5c68.7,0,132.5-25.9,182-72.7c44.8,25.9,83.7,60.7,114.1,102.4c41.3,56.7,67,125.4,70.2,200.1H132.6z M318.2,495.3c-13.3,3.1-44.1-14.8-50.2-40.7c-6.2-26.5-0.3-51.2,13.2-55.2c4-1.2,8.2-0.3,12.3,2.1v-27.1l26.5-2c98.8,0,184.9-41.4,232.2-102.9c34.2,44.7,89,78.6,154.3,93.9v38c4.1-2.4,8.3-3.3,12.3-2.1c13.6,4,19.4,28.7,13.2,55.2c-6.1,25.8-36.7,43.5-49.9,40.8c-10.3,33.4-30.9,68.8-55.9,99.4c-3.6,4.4-7.4,8.7-11.1,12.9c-4.1,4.5-8.3,8.8-12.6,13.1c17.4,5.1,34.1,11.6,50.4,19.1c-42.1,36.4-95.2,56.2-151.8,56.2c-56.1,0-110.3-20.6-152.4-56.9c15.4-7,31.3-13.1,47.7-18c-4.2-4.3-8.4-8.7-12.4-13.1c-3.8-4.2-7.4-8.6-11-13C348.5,564.7,328.5,529.3,318.2,495.3z"/></g><g></g><g></g><g></g><g></g><g></g><g></g><g></g><g></g><g></g><g></g><g></g><g></g><g></g><g></g><g></g></g>
</svg>